<?xml version="1.0" encoding="utf-8"?>
<!-- Generator: Adobe Illustrator 22.1.0, SVG Export Plug-In . SVG Version: 6.00 Build 0)  -->
<svg version="1.1" id="Capa_1" xmlns="http://www.w3.org/2000/svg" xmlns:xlink="http://www.w3.org/1999/xlink" x="0px" y="0px"
	 viewBox="0 0 1809.6 381.8" style="enable-background:new 0 0 1809.6 381.8;" xml:space="preserve">
<style type="text/css">
	.st0{fill:#185A7D;}
	.st1{fill:#00BDA4;}
	.st2{fill:#69D2C2;}
</style>
<title>Mesa de trabajo 1</title>
<path class="st0" d="M119,147.2v52.9h-6.7c-1-10.5-4-19.3-9-26.4c-4.9-7.1-11-12.2-18.1-15.4c-7.1-3.2-14.8-4.8-23-4.8
	c-11.8,0-21.5,3.1-29.2,9.1c-7.6,6.1-11.5,14.3-11.5,24.7c0,9.4,2.8,17.6,8.5,24.8c5.6,7.2,13.6,14.1,24,20.7
	c10.3,6.6,20.8,13.2,31.4,19.6c10.6,6.5,19.3,13.1,26.1,19.9c7.6,7.6,12.8,14.9,15.6,21.9c2.8,7.1,4.2,14.8,4.2,23.1
	c0,8.9-1.7,17.2-5,24.9c-3.3,7.8-7.9,14.6-13.8,20.4c-5.8,5.8-12.8,10.5-20.8,13.9c-8,3.4-16.3,5.1-24.7,5.1c-6.9,0-13.3-0.7-19-2.2
	c-5.7-1.5-12.2-3.5-19.4-6c-7.3-2.5-11.7-3.8-13.4-3.8c-3.6,0-6.5,2.9-8.7,8.7H0v-61h6.5c0.1,12.8,3.1,23.4,9,31.8
	c5.9,8.3,13.1,14.4,21.7,18.2c8.5,3.8,16.5,5.7,23.8,5.7c9.1,0,17-1.6,23.8-4.9c6.7-3.3,12-7.9,15.9-14c3.9-6,5.8-13.2,5.8-21.4
	c0-9-3-17.3-9-24.8c-6-7.6-14.5-14.9-25.5-22c-11-7.1-20.9-13.5-29.8-19.1c-8.9-5.6-16.1-11.1-21.7-16.5
	C7.6,237.7,1.2,221.9,1.2,203.2c0-11.4,2.6-21.5,7.7-30.3c5.1-8.8,12.4-15.7,21.9-20.6c9.5-4.9,20.1-7.4,31.8-7.4
	c7.1,0,13.1,0.6,18,1.7c4.9,1.2,10,2.6,15.1,4.3c5.1,1.7,8.9,2.6,11.2,2.6c1.8,0,3-0.4,3.7-1.1c0.6-0.7,1.3-2.5,2.1-5.3H119z"/>
<path class="st0" d="M604,192.6v183.6h-6.6L437.9,179.9h-0.8v158.4c0,11.3,2.3,19.3,7,24.1c4.7,4.7,12.2,7.1,22.6,7.1v6.7h-68.5
	v-6.7c6.8,0,12.2-1,16.1-3c3.9-2,6.9-5.7,8.9-11.2c2-5.5,3-13.6,3-24.5v-132c0-13.5-2.4-23.5-7.2-30.2c-4.8-6.7-13.6-10.5-26.3-11.5
	v-6.7h58l141.3,175.9h0.8v-132c0-14.4-2.1-24.2-6.2-29.4c-4.1-5.2-11.2-7.8-21.4-7.8v-6.7h67.9v6.7c-10.9,0-18.5,2.6-22.7,7.8
	C606.1,170,604,179.3,604,192.6z"/>
<path class="st0" d="M777.3,161.6v173.3c0,13.5,1.7,22.6,5,27.4c3.3,4.8,9.8,7.2,19.4,7.2v6.7h-80.3v-6.7c5.8,0,10.5-0.9,14.2-2.6
	c3.7-1.7,6.6-5.3,8.6-10.7c2-5.4,3-12.9,3-22.5V161.6h-32.7c-15.4,0-26.7,2.4-33.9,7.3c-7.2,4.9-11.3,13.2-12.2,25h-6.7v-52h6.7
	c3,2.8,7.1,4.9,12.3,6.4c5.5,1.3,12.7,1.9,21.6,1.9h118.4c9.8,0,17.3-0.6,22.5-1.9c5.3-1.3,9.7-3.4,13.3-6.4h7.1v52h-4.4
	c-2.4-11-6.8-19.2-13.2-24.4c-6.4-5.3-17.9-7.9-34.6-7.9H777.3z"/>
<path class="st0" d="M944.1,193v140.7c0,9.2,0.8,16.4,2.4,21.6c1.6,5.1,4.3,8.8,8.1,11c3.8,2.2,8.8,3.3,15.1,3.3v6.7h-81.2v-6.7
	c9.6,0,16.3-2.5,20-7.4c3.7-4.9,5.6-14.4,5.6-28.4V193c0-14.1-1.8-23.6-5.4-28.6c-3.6-4.9-10.3-7.4-20.2-7.4v-6.7h81.2v6.7
	c-6.4,0-11.5,1.1-15.2,3.4c-3.7,2.2-6.4,5.9-8,11.1C944.9,176.6,944.1,183.7,944.1,193z"/>
<g>
	<path class="st0" d="M1188.8,363.9c-4.2-3.7-7.9-10.9-11.3-21.6l-65.4-194.4h-23.3l-62.4,186.1c-2.6,7.8-5.1,14-7.5,18.6
		c-2.4,4.6-5.7,8.3-9.7,11.2c-4,2.9-9.5,4.8-16.3,5.7v6.7h58.3v-6.7c-12.1-0.4-18.1-5.3-18.1-14.6c0-4.9,2-13.2,6-24.8l15.4-45.2h0
		l35.8-109.5l0.9,0l36.2,109.7h0l0,0h0l20.5,62.4c1,3,1.5,5.9,1.5,8.9c0,8.9-6.4,13.3-19.2,13.3v6.7h79.5v-6.7
		C1199.9,369.5,1192.9,367.6,1188.8,363.9z"/>
	<polygon class="st0" points="1054.5,284.8 1054.5,284.8 1054.5,284.8 1054.5,284.8 	"/>
</g>
<g>
	<path class="st0" d="M351.3,363.9c-4.2-3.7-7.9-10.9-11.3-21.6l-65.4-194.4h-23.3l-62.4,186.1c-2.6,7.8-5.1,14-7.5,18.6
		c-2.4,4.6-5.7,8.3-9.7,11.2c-4,2.9-9.5,4.8-16.3,5.7v6.7h58.3v-6.7c-12.1-0.4-18.1-5.3-18.1-14.6c0-4.9,2-13.2,6-24.8l15.4-45.2h0
		l35.8-109.5l0.9,0L289.9,285h0l0,0h0l20.5,62.4c1,3,1.5,5.9,1.5,8.9c0,8.9-6.4,13.3-19.2,13.3v6.7h79.5v-6.7
		C362.4,369.5,355.5,367.6,351.3,363.9z"/>
	<polygon class="st0" points="217,284.8 217,284.8 217,284.8 217,284.8 	"/>
</g>
<path class="st0" d="M1317.5,243.4v50.5h75c-9.5,23.4-30.7,37.1-58.3,37.1c-35.8,0-61.7-28.7-61.7-68.1c0-18.7,6.6-36,18.5-48.5
	c12.1-12.7,28.9-19.7,47.5-19.7c25.6,0,41.5,15,50.4,27.5l4.6,6.5l40.5-31.3l-4.4-6c-22.7-30.9-54.2-47.2-91-47.2
	c-33.3,0-63.7,12.5-85.6,35.1c-21.3,22-33,51.7-33,83.5c0,66.5,50.3,118.7,114.4,118.7c71,0,116.8-51.2,116.8-130.5v-7.6H1317.5z"/>
<path class="st1" d="M46.2,1.7h23.1c2.9,0,5.5,0.3,8,1c2.5,0.7,4.6,1.7,6.4,3c1.8,1.3,3.2,3.1,4.2,5.2c1,2.1,1.5,4.5,1.5,7.4
	c0,3.8-1.1,6.9-3.2,9.3c-2.1,2.4-4.9,4.2-8.3,5.3v0.2c2,0.1,3.9,0.6,5.6,1.5c1.8,0.9,3.3,2.1,4.5,3.6c1.3,1.5,2.3,3.2,3,5.1
	c0.8,1.9,1.1,4,1.1,6.3c0,3-0.6,5.6-1.8,7.9c-1.2,2.3-2.9,4.2-5,5.8c-2.1,1.6-4.6,2.8-7.4,3.6c-2.8,0.8-5.8,1.2-9.1,1.2H46.2V1.7z
	 M55.2,29.3h12.3c1.7,0,3.3-0.2,4.8-0.5c1.5-0.3,2.8-0.9,3.9-1.7c1.1-0.8,2-1.8,2.7-3.1c0.7-1.3,1-2.8,1-4.6c0-2.6-0.8-4.9-2.5-6.8
	c-1.7-1.9-4.3-2.9-8-2.9H55.2V29.3z M55.2,60.2h13.2c1.4,0,2.9-0.1,4.5-0.4c1.7-0.3,3.2-0.8,4.6-1.7c1.4-0.8,2.7-2,3.7-3.4
	c1-1.4,1.5-3.3,1.5-5.7c0-3.9-1.3-6.9-3.8-8.9c-2.6-2-6-3-10.4-3H55.2V60.2z"/>
<path class="st1" d="M256.5,69.8c-5.1,0-9.7-0.9-14-2.7c-4.3-1.8-7.9-4.2-10.9-7.4c-3-3.1-5.4-6.8-7.1-11.1
	c-1.7-4.3-2.6-8.8-2.6-13.8c0-4.9,0.9-9.5,2.6-13.8c1.7-4.3,4.1-7.9,7.1-11.1c3-3.1,6.7-5.6,10.9-7.4c4.3-1.8,8.9-2.7,14-2.7
	c5.1,0,9.7,0.9,14,2.7c4.3,1.8,7.9,4.2,10.9,7.4c3,3.1,5.4,6.8,7.1,11.1c1.7,4.3,2.6,8.8,2.6,13.8c0,4.9-0.9,9.5-2.6,13.8
	c-1.7,4.3-4.1,7.9-7.1,11.1c-3,3.1-6.7,5.6-10.9,7.4C266.3,68.9,261.6,69.8,256.5,69.8z M256.5,61.3c3.8,0,7.3-0.7,10.3-2.1
	c3.1-1.4,5.7-3.3,7.9-5.7c2.2-2.4,3.9-5.2,5.1-8.4c1.2-3.2,1.8-6.6,1.8-10.3c0-3.6-0.6-7-1.8-10.3c-1.2-3.2-2.9-6-5.1-8.4
	c-2.2-2.4-4.8-4.3-7.9-5.7c-3.1-1.4-6.5-2.1-10.3-2.1c-3.8,0-7.3,0.7-10.3,2.1c-3.1,1.4-5.7,3.3-7.9,5.7c-2.2,2.4-3.9,5.2-5.1,8.4
	c-1.2,3.2-1.8,6.6-1.8,10.3c0,3.6,0.6,7.1,1.8,10.3c1.2,3.2,2.9,6,5.1,8.4c2.2,2.4,4.8,4.3,7.9,5.7
	C249.3,60.6,252.7,61.3,256.5,61.3z"/>
<path class="st1" d="M424.8,1.7h9v58h30.5v8.4h-39.5V1.7z"/>
<path class="st1" d="M596.2,54.2c1.6,2.4,3.7,4.2,6.2,5.4c2.5,1.2,5.1,1.7,7.8,1.7c1.5,0,3-0.2,4.6-0.7c1.6-0.5,3-1.2,4.3-2.1
	c1.3-0.9,2.3-2.1,3.1-3.5c0.8-1.4,1.2-3,1.2-4.8c0-2.6-0.8-4.5-2.4-5.9c-1.6-1.3-3.6-2.5-6-3.4c-2.4-0.9-5-1.8-7.9-2.6
	c-2.8-0.8-5.5-2-7.9-3.5c-2.4-1.5-4.4-3.5-6-6c-1.6-2.5-2.4-6-2.4-10.3c0-1.9,0.4-4,1.3-6.2c0.8-2.2,2.2-4.2,4-6
	c1.8-1.8,4.1-3.3,7-4.5c2.8-1.2,6.3-1.8,10.3-1.8c3.6,0,7.1,0.5,10.4,1.5c3.3,1,6.2,3,8.7,6.1l-7.3,6.7c-1.1-1.7-2.7-3.2-4.8-4.2
	c-2.1-1.1-4.4-1.6-7-1.6c-2.5,0-4.6,0.3-6.2,1c-1.7,0.7-3,1.5-4,2.5c-1,1-1.7,2.1-2.1,3.3c-0.4,1.2-0.6,2.3-0.6,3.3
	c0,2.8,0.8,5,2.4,6.5c1.6,1.5,3.6,2.7,6,3.7c2.4,0.9,5,1.8,7.9,2.5c2.8,0.8,5.5,1.8,7.9,3.1c2.4,1.3,4.4,3.2,6,5.4
	c1.6,2.3,2.4,5.4,2.4,9.4c0,3.2-0.6,6.1-1.8,8.6c-1.2,2.6-2.9,4.7-4.9,6.5c-2.1,1.8-4.5,3.1-7.3,4c-2.8,0.9-5.8,1.4-9,1.4
	c-4.3,0-8.3-0.8-12.1-2.3c-3.8-1.5-6.8-3.8-9.1-6.9L596.2,54.2z"/>
<path class="st1" d="M787.9,1.7h8.2l28.4,66.4H814l-6.7-16.4h-31.6l-6.6,16.4h-10.5L787.9,1.7z M804,43.8l-12.4-30.5h-0.2
	l-12.6,30.5H804z"/>
<polygon class="st2" points="1707.2,193.9 1740.1,237.5 1809.6,146.1 1744.8,146.1 "/>
<polygon class="st0" points="1708.3,330.2 1740.2,287.6 1808.3,379.9 1744.9,379.9 "/>
<path class="st0" d="M1589.5,331c-17.9,0-34.4-7.1-46.4-19.9c-11.9-12.7-18.4-29.8-18.4-48.2c0-18.4,6.5-35.5,18.4-48.2
	c12-12.9,28.5-19.9,46.4-19.9c2.8,0,5.8,0.2,8.8,0.6l17.7,2.3l-37.9-51.6h-9.3c-26.4,4.7-50.4,18.3-68,38.7
	c-18.5,21.5-28.7,49.2-28.7,78.1c0,28.9,10.2,56.6,28.7,78.1c17.8,20.7,42.2,34.4,69,38.9h8.3l37.6-51.7l-17.6,2.3
	C1595.1,330.8,1592.3,331,1589.5,331z"/>
<polygon class="st1" points="1713,250.1 1692.4,222.9 1654.6,173 1634.2,146.1 1568.6,146.1 1573.7,153 1599.2,187.8 1654.1,262.4 
	1599,338 1573.7,372.8 1568.6,379.9 1632.1,379.9 1635,376 1650,356 1694.6,296.3 1710.3,275.4 1721.1,260.9 "/>
</svg>
